<?xml version="1.0" encoding="utf-8"?>
<!-- Generator: Adobe Illustrator 16.0.0, SVG Export Plug-In . SVG Version: 6.00 Build 0)  -->
<!DOCTYPE svg PUBLIC "-//W3C//DTD SVG 1.1//EN" "http://www.w3.org/Graphics/SVG/1.1/DTD/svg11.dtd">
<svg version="1.1" id="Layer_1" xmlns="http://www.w3.org/2000/svg" xmlns:xlink="http://www.w3.org/1999/xlink" x="0px" y="0px"
	 width="47.791px" height="21.792px" viewBox="0 0 47.791 21.792" enable-background="new 0 0 47.791 21.792" xml:space="preserve">
<g>
	<path fill="#FFFFFF" d="M12.41,16.007H9.859L6.738,5.782h2.183l1.729,6.156l0.556,2.018l0.579-2.135l1.713-6.039h2.049
		L12.41,16.007z"/>
	<path fill="#FFFFFF" d="M16.72,7.354V5.782h6.461v1.572h-2.254v7.064h2.254v1.588H16.72v-1.588h2.252V7.354H16.72z"/>
	<path fill="#FFFFFF" d="M30.037,7.386v8.619h-1.971V7.386h-2.801V5.782h7.572v1.604H30.037z"/>
	<path fill="#FFFFFF" d="M34.896,16.005V5.782h6.156v1.627h-4.201V9.95h4.006v1.588h-4.006v2.84h4.201v1.627H34.896z"/>
</g>
<polygon fill="#FFFFFF" points="2,19.792 2,14.792 0,14.792 0,21.792 0.167,21.792 2,21.792 6.083,21.792 6.083,19.792 "/>
<polygon fill="#FFFFFF" points="45.792,2 45.792,7 47.791,7 47.791,0 47.625,0 45.792,0 41.708,0 41.708,2 "/>
</svg>
