<?xml version="1.0" encoding="utf-8"?>
<!-- Generator: Adobe Illustrator 16.0.0, SVG Export Plug-In . SVG Version: 6.00 Build 0)  -->
<!DOCTYPE svg PUBLIC "-//W3C//DTD SVG 1.1//EN" "http://www.w3.org/Graphics/SVG/1.1/DTD/svg11.dtd">
<svg version="1.1" id="Layer_1" xmlns="http://www.w3.org/2000/svg" xmlns:xlink="http://www.w3.org/1999/xlink" x="0px" y="0px"
	 width="35.125px" height="43.042px" viewBox="0 0 35.125 43.042" enable-background="new 0 0 35.125 43.042" xml:space="preserve">
<g>
	<path fill="#FFFFFF" d="M13.754,18.668h-2.551L8.083,8.444h2.183l1.729,6.156l0.556,2.019l0.579-2.136l1.713-6.039h2.05
		L13.754,18.668z"/>
	<path fill="#FFFFFF" d="M18.064,10.016V8.444h6.462v1.572h-2.254v7.064h2.254v1.588h-6.462V17.08h2.253v-7.064H18.064z"/>
	<path fill="#FFFFFF" d="M13.472,26.048v8.62h-1.971v-8.62H8.701v-1.604h7.572v1.604H13.472z"/>
	<path fill="#FFFFFF" d="M18.331,34.668V24.444h6.156v1.627h-4.201v2.542h4.006v1.588h-4.006v2.84h4.201v1.627H18.331z"/>
</g>
<polygon fill="#FFFFFF" points="2,41.042 2,36.042 0,36.042 0,43.042 0.167,43.042 2,43.042 6.083,43.042 6.083,41.042 "/>
<polygon fill="#FFFFFF" points="33.125,2 33.125,7 35.125,7 35.125,0 34.958,0 33.125,0 29.042,0 29.042,2 "/>
</svg>
